<svg width="900" height="500" viewBox="0 0 900 500" xmlns="http://www.w3.org/2000/svg">
  <rect width="900" height="500" fill="white" />

  <!-- Main circle -->
  <circle cx="220" cy="250" r="170" fill="#3B82F6" />

  <!-- Curved arrow -->
  <path
    d="M70 120 C 150 40, 280 40, 350 120"
    stroke="#111827"
    stroke-width="16"
    fill="none"
    stroke-linecap="round"
  />
  <path d="M350 120 L330 100 L334 136 Z" fill="#111827" />

  <!-- Sparkles -->
  <path d="M130 170 L140 190 L160 200 L140 210 L130 230 L120 210 L100 200 L120 190 Z" fill="#0F172A" />
  <path d="M280 190 L288 206 L306 212 L288 220 L280 238 L272 220 L254 212 L272 206 Z" fill="#0F172A" />

  <!-- Rocket -->
  <g transform="translate(150 135) rotate(-8)">
    <path d="M70 0 L120 60 L20 60 Z" fill="#111827" />
    <rect x="30" y="40" width="80" height="160" rx="40" fill="#111827" />
    <circle cx="70" cy="110" r="18" fill="#E5E7EB" stroke="#0F172A" stroke-width="6" />
    <path d="M30 150 L0 185 L30 185 Z" fill="#0F172A" />
    <path d="M110 150 L110 185 L140 185 Z" fill="#0F172A" />
    <path d="M70 200 C 90 230, 95 255, 70 285 C 45 255, 50 230, 70 200 Z" fill="#93C5FD" />
  </g>

  <!-- Label cards -->
  <g transform="translate(380 150) rotate(-6)">
    <rect width="160" height="70" fill="#60A5FA" />
    <text
      x="80"
      y="48"
      text-anchor="middle"
      font-family="Arial Black, Arial, sans-serif"
      font-size="44"
      fill="#0F172A"
      letter-spacing="4"
    >
      OUR
    </text>
  </g>
  <g transform="translate(360 230) rotate(4)">
    <rect width="320" height="80" fill="#3B82F6" />
    <text
      x="160"
      y="54"
      text-anchor="middle"
      font-family="Arial Black, Arial, sans-serif"
      font-size="48"
      fill="#0F172A"
      letter-spacing="3"
    >
      MISSION
    </text>
  </g>
</svg>
